<svg xmlns="http://www.w3.org/2000/svg" xmlns:xlink="http://www.w3.org/1999/xlink" width="512" height="512" version="1.1" viewBox="0 0 512 512"><title>rubymine</title><desc>Created with Sketch.</desc><defs><linearGradient id="linearGradient-1" x1="67.685%" x2="37.157%" y1="100.678%" y2="13.722%"><stop offset="17.2%" stop-color="#FF1F51"/><stop offset="28%" stop-color="#FF3648"/><stop offset="46.8%" stop-color="#FF593B"/><stop offset="64.6%" stop-color="#FF7231"/><stop offset="80.9%" stop-color="#FF812B"/><stop offset="94.1%" stop-color="#FF8629"/></linearGradient><linearGradient id="linearGradient-2" x1="61.448%" x2="43.527%" y1="22.515%" y2="91.704%"><stop offset="2.2%" stop-color="#9039D0"/><stop offset="62.9%" stop-color="#FF1F51"/></linearGradient><linearGradient id="linearGradient-3" x1=".524%" x2="81.888%" y1="8.019%" y2="97.527%"><stop offset="10.7%" stop-color="#9039D0"/><stop offset="38.7%" stop-color="#FF1F51"/><stop offset="62.9%" stop-color="#FF1F51"/><stop offset="66%" stop-color="#FF3648"/><stop offset="71.4%" stop-color="#FF593B"/><stop offset="76.5%" stop-color="#FF7231"/><stop offset="81.2%" stop-color="#FF812B"/><stop offset="85%" stop-color="#FF8629"/></linearGradient></defs><g id="Page-1" fill="none" fill-rule="evenodd" stroke="none" stroke-width="1"><g id="jetbrains" transform="translate(-1074.000000, 0.000000)"><g id="rubymine"><g><g transform="translate(1074.000000, 0.000000)"><polyline id="Shape" fill="url(#linearGradient-1)" points="425.691 0 279.406 52.663 163.84 0 50.469 284.526 180.663 232.594 178.469 376.686 457.143 381.806 512 100.206"/><polyline id="Shape" fill="url(#linearGradient-2)" points="371.566 166.034 187.246 45.349 38.766 136.777 364.251 262.583"/><polyline id="Shape" fill="url(#linearGradient-3)" points="212.846 498.834 404.48 473.234 343.771 356.206 384 307.2 388.389 277.211 187.246 44.617 0 90.697 0 359.131 108.251 512 212.846 498.834"/><g id="Group" transform="translate(95.085714, 95.085714)"><polygon id="Shape" fill="#000" points="2.926 2.926 318.903 2.926 318.903 318.903 2.926 318.903"/><path id="Shape" fill="#FFF" d="M32.9142857,259.657143 L151.405714,259.657143 L151.405714,279.405714 L32.9142857,279.405714 L32.9142857,259.657143 Z M157.988571,43.8857143 L189.44,43.8857143 L223.817143,99.4742857 L258.194286,43.8857143 L289.645714,43.8857143 L289.645714,174.811429 L260.388571,174.811429 L260.388571,89.2342857 L223.817143,145.554286 L223.085714,145.554286 L186.514286,89.9657143 L186.514286,174.811429 L157.988571,174.811429 L157.988571,43.8857143 Z M32.1828571,43.8857143 L92.16,43.8857143 C108.982857,43.8857143 121.417143,48.2742857 130.194286,57.0514286 C137.508571,64.3657143 141.165714,74.6057143 141.165714,87.04 L141.165714,87.7714286 C141.165714,98.7428571 138.24,106.788571 133.12,113.371429 C128,119.954286 121.417143,125.074286 112.64,128 L144.822857,174.811429 L111.177143,174.811429 L84.1142857,134.582857 L59.9771429,134.582857 L59.9771429,174.811429 L31.4514286,174.811429 L31.4514286,43.8857143 L32.1828571,43.8857143 Z M90.6971429,107.52 C98.0114286,107.52 103.131429,106.057143 106.788571,102.4 C110.445714,98.7428571 112.64,94.3542857 112.64,89.2342857 L112.64,88.5028571 C112.64,81.92 110.445714,77.5314286 106.788571,74.6057143 C103.131429,71.68 97.28,70.2171429 89.9657143,70.2171429 L61.44,70.2171429 L61.44,107.52 L90.6971429,107.52 L90.6971429,107.52 Z"/></g></g></g></g></g></g></svg>