<svg xmlns="http://www.w3.org/2000/svg" xmlns:xlink="http://www.w3.org/1999/xlink" width="512" height="512" version="1.1" viewBox="0 0 512 512"><title>intellij-idea</title><desc>Created with Sketch.</desc><defs><linearGradient id="linearGradient-1" x1="-.031%" x2="100.052%" y1="49.962%" y2="49.962%"><stop offset="25.8%" stop-color="#F97A12"/><stop offset="45.9%" stop-color="#B07B58"/><stop offset="72.4%" stop-color="#577BAE"/><stop offset="91%" stop-color="#1E7CE5"/><stop offset="100%" stop-color="#087CFA"/></linearGradient><linearGradient id="linearGradient-2" x1=".376%" x2="121.225%" y1="34.514%" y2="77.605%"><stop offset="0%" stop-color="#F97A12"/><stop offset="7.2%" stop-color="#CB7A3E"/><stop offset="15.4%" stop-color="#9E7B6A"/><stop offset="24.2%" stop-color="#757B91"/><stop offset="33.4%" stop-color="#537BB1"/><stop offset="43.2%" stop-color="#387CCC"/><stop offset="53.8%" stop-color="#237CE0"/><stop offset="65.5%" stop-color="#147CEF"/><stop offset="79.2%" stop-color="#0B7CF7"/><stop offset="100%" stop-color="#087CFA"/></linearGradient><linearGradient id="linearGradient-3" x1="78.225%" x2="30.193%" y1="97.699%" y2="-6.586%"><stop offset="0%" stop-color="#FE315D"/><stop offset="7.8%" stop-color="#CB417E"/><stop offset="16%" stop-color="#9E4E9B"/><stop offset="24.7%" stop-color="#755BB4"/><stop offset="33.9%" stop-color="#5365CA"/><stop offset="43.6%" stop-color="#386DDB"/><stop offset="54.1%" stop-color="#2374E9"/><stop offset="65.8%" stop-color="#1478F3"/><stop offset="79.4%" stop-color="#0B7BF8"/><stop offset="100%" stop-color="#087CFA"/></linearGradient><linearGradient id="linearGradient-4" x1="19.963%" x2="103.397%" y1="24.119%" y2="132.621%"><stop offset="0%" stop-color="#FE315D"/><stop offset="4%" stop-color="#F63462"/><stop offset="10.4%" stop-color="#DF3A71"/><stop offset="16.7%" stop-color="#C24383"/><stop offset="29.1%" stop-color="#AD4A91"/><stop offset="55%" stop-color="#755BB4"/><stop offset="91.7%" stop-color="#1D76ED"/><stop offset="100%" stop-color="#087CFA"/></linearGradient></defs><g id="Page-1" fill="none" fill-rule="evenodd" stroke="none" stroke-width="1"><g id="jetbrains" transform="translate(0.000000, -1611.000000)"><g id="intellij-idea"><g><g transform="translate(0.000000, 1611.000000)"><polyline id="Shape" fill="url(#linearGradient-1)" points="129.463 399.36 5.851 301.349 67.291 187.246 243.566 256"/><polyline id="Shape" fill="url(#linearGradient-2)" points="512 136.777 502.491 433.006 305.737 512 187.246 435.931 360.594 256 284.526 89.966 352.549 8.046"/><polyline id="Shape" fill="url(#linearGradient-3)" points="512 136.777 356.206 321.097 284.526 89.966 352.549 8.046"/><polyline id="Shape" fill="url(#linearGradient-4)" points="246.491 424.96 40.96 499.566 73.874 384 117.029 242.103 0 202.606 73.874 0 234.789 19.749 392.777 200.411"/><g id="Group" transform="translate(95.085714, 95.085714)"><polygon id="Shape" fill="#000" points="5.12 3.657 321.097 3.657 321.097 319.634 5.12 319.634"/><path id="Shape" fill="#FFF" d="M34.3771429,260.388571 L152.868571,260.388571 L152.868571,280.137143 L34.3771429,280.137143 L34.3771429,260.388571 Z M119.954286,68.7542857 L119.954286,44.6171429 L54.1257143,44.6171429 L54.1257143,68.7542857 L73.1428571,68.7542857 L73.1428571,151.405714 L54.1257143,151.405714 L54.1257143,175.542857 L119.954286,175.542857 L119.954286,151.405714 L101.668571,151.405714 L101.668571,68.7542857 L119.954286,68.7542857 Z M182.857143,177.737143 C172.617143,177.737143 163.84,175.542857 157.257143,171.885714 C150.674286,168.228571 144.822857,163.108571 140.434286,157.988571 L158.72,137.508571 C162.377143,141.897143 166.034286,144.822857 169.691429,147.017143 C173.348571,149.211429 177.737143,150.674286 182.125714,150.674286 C187.245714,150.674286 191.634286,149.211429 195.291429,145.554286 C198.217143,141.897143 199.68,136.777143 199.68,128.731429 L199.68,44.6171429 L228.937143,44.6171429 L228.937143,130.194286 C228.937143,138.24 228.205714,144.822857 226.011429,150.674286 C223.817143,156.525714 220.891429,160.914286 216.502857,165.302857 C212.845714,168.96 207.725714,172.617143 201.874286,174.08 C196.022857,176.274286 190.171429,177.737143 182.857143,177.737143 L182.857143,177.737143 Z"/></g></g></g></g></g></g></svg>