<svg xmlns="http://www.w3.org/2000/svg" xmlns:xlink="http://www.w3.org/1999/xlink" width="512" height="512" version="1.1" viewBox="0 0 512 512"><title>clion</title><desc>Created with Sketch.</desc><defs><linearGradient id="linearGradient-1" x1="-.227%" x2="115.044%" y1="49.957%" y2="49.957%"><stop offset="0%" stop-color="#ED358C"/><stop offset="15.5%" stop-color="#E9388C"/><stop offset="29.7%" stop-color="#DE418C"/><stop offset="43.3%" stop-color="#CC508C"/><stop offset="56.6%" stop-color="#B2658D"/><stop offset="69.7%" stop-color="#90808D"/><stop offset="82.6%" stop-color="#67A18E"/><stop offset="95.1%" stop-color="#37C78F"/><stop offset="100%" stop-color="#22D88F"/></linearGradient><linearGradient id="linearGradient-2" x1="66.667%" x2="28.109%" y1="17.441%" y2="151.583%"><stop offset="9.1%" stop-color="#22D88F"/><stop offset="90.3%" stop-color="#029DE0"/></linearGradient><linearGradient id="linearGradient-3" x1="93.055%" x2="-9.596%" y1="5.807%" y2="119.701%"><stop offset="9.1%" stop-color="#22D88F"/><stop offset="90.3%" stop-color="#029DE0"/></linearGradient><linearGradient id="linearGradient-4" x1="32.84%" x2="92.978%" y1="48.544%" y2="58.032%"><stop offset="9.1%" stop-color="#22D88F"/><stop offset="90.3%" stop-color="#029DE0"/></linearGradient></defs><g id="Page-1" fill="none" fill-rule="evenodd" stroke="none" stroke-width="1"><g id="jetbrains" transform="translate(-1074.000000, -537.000000)"><g id="clion"><g><g transform="translate(1074.000000, 537.000000)"><polyline id="Shape" fill="url(#linearGradient-1)" points="196.754 207.726 163.109 221.623 193.097 0 311.589 64.366"/><polyline id="Shape" fill="url(#linearGradient-2)" points="177.737 307.2 195.291 0 47.543 92.891 0 376.686"/><polyline id="Shape" fill="url(#linearGradient-3)" points="501.76 153.6 435.931 19.749 311.589 64.366 220.16 166.034 0 376.686 166.034 497.371 374.491 309.394"/><polyline id="Shape" fill="url(#linearGradient-4)" points="215.04 218.697 186.514 394.24 303.543 484.206 431.543 512 512 329.143"/><g id="Group" transform="translate(95.085714, 95.085714)"><polygon id="Shape" fill="#000" points="2.926 2.926 318.903 2.926 318.903 318.903 2.926 318.903"/><path id="Shape" fill="#FFF" d="M32.9142857,259.657143 L151.405714,259.657143 L151.405714,279.405714 L32.9142857,279.405714 L32.9142857,259.657143 Z M30.72,110.445714 C30.72,73.1428571 58.5142857,42.4228571 98.7428571,42.4228571 C123.611429,42.4228571 138.24,50.4685714 150.674286,62.9028571 L132.388571,84.1142857 C122.148571,74.6057143 111.908571,69.4857143 98.7428571,69.4857143 C76.8,69.4857143 60.7085714,87.7714286 60.7085714,110.445714 L60.7085714,109.714286 C60.7085714,132.388571 76.0685714,150.674286 98.7428571,150.674286 C113.371429,150.674286 122.88,144.822857 133.12,135.314286 L151.405714,153.6 C138.24,168.228571 122.88,177.005714 98.0114286,177.005714 C59.2457143,177.737143 30.72,147.748571 30.72,110.445714 L30.72,110.445714 Z M171.154286,44.6171429 L199.68,44.6171429 L199.68,151.405714 L256.731429,151.405714 L256.731429,175.542857 L171.154286,175.542857 L171.154286,44.6171429 L171.154286,44.6171429 Z"/></g></g></g></g></g></g></svg>