<svg xmlns="http://www.w3.org/2000/svg" xmlns:xlink="http://www.w3.org/1999/xlink" width="512" height="512" version="1.1" viewBox="0 0 512 512"><title>pycharm-edu</title><desc>Created with Sketch.</desc><defs><linearGradient id="linearGradient-1" x1="-46.871%" x2="90.614%" y1="50.144%" y2="50.144%"><stop offset="0%" stop-color="#21D789"/><stop offset="100%" stop-color="#07C3F2"/></linearGradient><linearGradient id="linearGradient-2" x1="-53.74%" x2="133.961%" y1="105.502%" y2="-7.573%"><stop offset="1.1%" stop-color="#FCF84A"/><stop offset="11.2%" stop-color="#A7EB62"/><stop offset="20.6%" stop-color="#5FE077"/><stop offset="27.3%" stop-color="#32DA84"/><stop offset="30.6%" stop-color="#21D789"/><stop offset="57.7%" stop-color="#21D789"/><stop offset="59.7%" stop-color="#21D789"/><stop offset="68.6%" stop-color="#20D68C"/><stop offset="76.3%" stop-color="#1ED497"/><stop offset="83.5%" stop-color="#19D1A9"/><stop offset="90.4%" stop-color="#13CCC2"/><stop offset="97.1%" stop-color="#0BC6E1"/><stop offset="100%" stop-color="#07C3F2"/></linearGradient><linearGradient id="linearGradient-3" x1="30.691%" x2="77.753%" y1="115.979%" y2="22.255%"><stop offset="0%" stop-color="#21D789"/><stop offset="16.4%" stop-color="#24D788"/><stop offset="30.5%" stop-color="#2FD886"/><stop offset="43.7%" stop-color="#41DA82"/><stop offset="56.4%" stop-color="#5ADC7D"/><stop offset="68.8%" stop-color="#7AE077"/><stop offset="80.9%" stop-color="#A1E36E"/><stop offset="92.5%" stop-color="#CFE865"/><stop offset="100%" stop-color="#F1EB5E"/></linearGradient><linearGradient id="linearGradient-4" x1="-9.568%" x2="118.556%" y1="202.215%" y2="-16.942%"><stop offset="0%" stop-color="#21D789"/><stop offset="6.1%" stop-color="#24D788"/><stop offset="11.3%" stop-color="#2FD886"/><stop offset="16.2%" stop-color="#41DA82"/><stop offset="20.9%" stop-color="#5ADD7D"/><stop offset="25.5%" stop-color="#79E077"/><stop offset="25.8%" stop-color="#7CE076"/><stop offset="49.9%" stop-color="#8CE173"/><stop offset="92.5%" stop-color="#B2E56B"/></linearGradient><linearGradient id="linearGradient-5" x1="111.825%" x2="-14.141%" y1="50.477%" y2="49.368%"><stop offset="38.7%" stop-color="#FCF84A"/><stop offset="53.6%" stop-color="#ECF451"/><stop offset="82.6%" stop-color="#C2E964"/><stop offset="92.5%" stop-color="#B2E56B"/></linearGradient></defs><g id="Page-1" fill="none" fill-rule="evenodd" stroke="none" stroke-width="1"><g id="jetbrains" transform="translate(-1611.000000, -1074.000000)"><g id="pycharm-edu"><g><g transform="translate(1611.000000, 1074.000000)"><polyline id="Shape" fill="url(#linearGradient-1)" points="359.131 80.457 508.343 205.531 454.949 314.514 364.251 289.646 286.72 289.646"/><polyline id="Shape" fill="url(#linearGradient-2)" points="208.457 161.646 179.2 314.514 176.274 367.177 103.863 398.629 0 409.6 31.451 78.263 218.697 0 334.263 76.069"/><polyline id="Shape" fill="url(#linearGradient-3)" points="208.457 161.646 222.354 457.143 175.543 512 0 409.6 144.091 194.56"/><polyline id="Shape" fill="url(#linearGradient-4)" points="401.554 139.703 223.817 139.703 381.074 0"/><polyline id="Shape" fill="url(#linearGradient-5)" points="512 457.874 355.474 511.269 147.749 452.754 208.457 161.646 232.594 139.703 359.131 128 347.429 255.269 448.366 216.503"/><g id="Group" transform="translate(95.085714, 95.085714)"><polygon id="Shape" fill="#000" points="2.926 2.926 318.903 2.926 318.903 318.903 2.926 318.903"/><path id="Shape" fill="#FFF" d="M32.9142857,259.657143 L151.405714,259.657143 L151.405714,279.405714 L32.9142857,279.405714 L32.9142857,259.657143 Z M31.4514286,44.6171429 L84.8457143,44.6171429 C116.297143,44.6171429 135.314286,62.9028571 135.314286,89.9657143 L135.314286,90.6971429 C135.314286,120.685714 111.908571,136.777143 82.6514286,136.777143 L60.7085714,136.777143 L60.7085714,175.542857 L32.1828571,175.542857 L32.1828571,44.6171429 L31.4514286,44.6171429 Z M83.3828571,110.445714 C98.0114286,110.445714 106.057143,101.668571 106.057143,90.6971429 L106.057143,89.9657143 C106.057143,76.8 97.28,70.2171429 82.6514286,70.2171429 L60.7085714,70.2171429 L60.7085714,110.445714 L83.3828571,110.445714 L83.3828571,110.445714 Z M150.674286,44.6171429 L249.417143,44.6171429 L249.417143,70.2171429 L179.2,70.2171429 L179.2,96.5485714 L241.371429,96.5485714 L241.371429,122.148571 L179.931429,122.148571 L179.931429,149.942857 L250.88,149.942857 L250.88,175.542857 L150.674286,175.542857 L150.674286,44.6171429 L150.674286,44.6171429 Z"/></g></g></g></g></g></g></svg>