<svg xmlns="http://www.w3.org/2000/svg" xmlns:xlink="http://www.w3.org/1999/xlink" width="512" height="512" version="1.1" viewBox="0 0 512 512"><title>phpstorm</title><desc>Created with Sketch.</desc><defs><linearGradient id="linearGradient-1" x1="1.409%" x2="75.624%" y1="144.142%" y2="24.695%"><stop offset="1.6%" stop-color="#765AF8"/><stop offset="38.2%" stop-color="#B345F1"/><stop offset="75.8%" stop-color="#FA3293"/><stop offset="94.1%" stop-color="#FF318C"/></linearGradient><linearGradient id="linearGradient-2" x1="9.75%" x2="114.543%" y1="86.98%" y2="-9.673%"><stop offset="1.6%" stop-color="#765AF8"/><stop offset="38.2%" stop-color="#B345F1"/><stop offset="75.8%" stop-color="#FA3293"/><stop offset="94.1%" stop-color="#FF318C"/></linearGradient><linearGradient id="linearGradient-3" x1="60.035%" x2="25.415%" y1="98.38%" y2="6.639%"><stop offset="18.3%" stop-color="#765AF8"/><stop offset="23.8%" stop-color="#8655F6"/><stop offset="34.5%" stop-color="#9F4CF3"/><stop offset="44.3%" stop-color="#AE47F2"/><stop offset="52.2%" stop-color="#B345F1"/></linearGradient><linearGradient id="linearGradient-4" x1="87.801%" x2="17.931%" y1="80.758%" y2="35.435%"><stop offset="1.6%" stop-color="#765AF8"/><stop offset="38.2%" stop-color="#B345F1"/></linearGradient></defs><g id="Page-1" fill="none" fill-rule="evenodd" stroke="none" stroke-width="1"><g id="jetbrains" transform="translate(-537.000000, 0.000000)"><g id="phpstorm"><g><g transform="translate(537.000000, 0.000000)"><polyline id="Shape" fill="url(#linearGradient-1)" points="289.646 111.177 265.509 38.034 87.04 0 0 98.743 272.091 237.714"/><polyline id="Shape" fill="url(#linearGradient-2)" points="204.8 302.811 199.68 150.674 0 98.743 49.006 392.046 204.8 390.583"/><polyline id="Shape" fill="url(#linearGradient-3)" points="161.646 299.886 171.154 179.2 315.977 30.72 445.44 54.126 512 220.16 442.514 288.914 329.143 270.629 258.926 344.503"/><polyline id="Shape" fill="url(#linearGradient-4)" points="315.977 30.72 108.251 215.04 148.48 452.023 321.097 512 512 397.897"/><g id="Group" transform="translate(95.085714, 95.085714)"><polygon id="Shape" fill="#000" points="2.926 2.926 318.903 2.926 318.903 318.903 2.926 318.903"/><path id="Shape" fill="#FFF" d="M32.9142857,259.657143 L151.405714,259.657143 L151.405714,279.405714 L32.9142857,279.405714 L32.9142857,259.657143 Z M31.4514286,43.8857143 L84.8457143,43.8857143 C116.297143,43.8857143 135.314286,62.1714286 135.314286,89.2342857 L135.314286,89.9657143 C135.314286,120.685714 111.908571,136.045714 81.92,136.045714 L59.9771429,136.045714 L59.9771429,175.542857 L31.4514286,175.542857 L31.4514286,43.8857143 L31.4514286,43.8857143 Z M83.3828571,109.714286 C98.0114286,109.714286 106.057143,100.937143 106.057143,89.9657143 L106.057143,89.2342857 C106.057143,76.0685714 97.28,69.4857143 82.6514286,69.4857143 L60.7085714,69.4857143 L60.7085714,109.714286 L83.3828571,109.714286 L83.3828571,109.714286 Z M142.628571,156.525714 L159.451429,136.045714 C171.154286,145.554286 183.588571,152.137143 198.948571,152.137143 C210.651429,152.137143 217.965714,147.748571 217.965714,139.702857 L217.965714,138.971429 C217.965714,131.657143 213.577143,128 191.634286,122.148571 C165.302857,115.565714 147.748571,108.251429 147.748571,81.92 L147.748571,81.1885714 C147.748571,57.0514286 166.765714,41.6914286 193.828571,41.6914286 C212.845714,41.6914286 229.668571,47.5428571 242.834286,58.5142857 L227.474286,80.4571429 C215.771429,72.4114286 204.068571,67.2914286 193.097143,67.2914286 C182.125714,67.2914286 176.274286,72.4114286 176.274286,78.9942857 L176.274286,79.7257143 C176.274286,88.5028571 182.125714,91.4285714 204.8,97.28 C231.131429,104.594286 246.491429,114.102857 246.491429,136.777143 L246.491429,137.508571 C246.491429,163.84 226.742857,178.468571 198.217143,178.468571 C178.468571,177.737143 158.72,170.422857 142.628571,156.525714 L142.628571,156.525714 Z"/></g></g></g></g></g></g></svg>