<svg xmlns="http://www.w3.org/2000/svg" xmlns:xlink="http://www.w3.org/1999/xlink" width="512" height="512" version="1.1" viewBox="0 0 512 512"><title>webstorm</title><desc>Created with Sketch.</desc><defs><linearGradient id="linearGradient-1" x1="41.71%" x2="71.852%" y1="1.946%" y2="95.243%"><stop offset="28.5%" stop-color="#00CDD7"/><stop offset="94.1%" stop-color="#2086D7"/></linearGradient><linearGradient id="linearGradient-2" x1="22.525%" x2="82.968%" y1="15.068%" y2="84.63%"><stop offset="14%" stop-color="#FFF045"/><stop offset="36.6%" stop-color="#00CDD7"/></linearGradient><linearGradient id="linearGradient-3" x1="36.3%" x2="65.043%" y1="25.068%" y2="90.155%"><stop offset="28.5%" stop-color="#00CDD7"/><stop offset="94.1%" stop-color="#2086D7"/></linearGradient></defs><g id="Page-1" fill="none" fill-rule="evenodd" stroke="none" stroke-width="1"><g id="jetbrains" transform="translate(0.000000, -1074.000000)"><g id="webstorm"><g><g transform="translate(0.000000, 1074.000000)"><polyline id="Shape" fill="url(#linearGradient-1)" points="68.754 462.994 0 53.394 128 .731 209.189 49.006 283.794 8.777 439.589 68.754 351.817 512"/><polyline id="Shape" fill="url(#linearGradient-2)" points="512 173.349 446.171 10.24 326.217 0 141.166 177.737 190.903 406.674 283.794 472.503 512 336.457 455.68 231.863"/><polyline id="Shape" fill="url(#linearGradient-3)" points="409.6 149.211 455.68 231.863 512 173.349 471.04 71.68"/><g id="Group" transform="translate(95.085714, 95.085714)"><polygon id="Shape" fill="#000" points="2.926 2.926 318.903 2.926 318.903 318.903 2.926 318.903"/><path id="Shape" fill="#FFF" d="M32.9142857,259.657143 L151.405714,259.657143 L151.405714,279.405714 L32.9142857,279.405714 L32.9142857,259.657143 Z M187.977143,155.794286 L204.8,135.314286 C216.502857,144.822857 228.937143,151.405714 243.565714,151.405714 C255.268571,151.405714 261.851429,147.017143 261.851429,138.971429 L261.851429,138.24 C261.851429,130.925714 257.462857,127.268571 235.52,121.417143 C209.188571,114.834286 193.097143,107.52 193.097143,81.1885714 L193.097143,80.4571429 C193.097143,56.32 212.114286,40.96 238.445714,40.96 C257.462857,40.96 273.554286,46.8114286 286.72,57.7828571 L272.091429,79.7257143 C260.388571,71.68 249.417143,66.56 238.445714,66.56 C227.474286,66.56 221.622857,71.68 221.622857,78.2628571 L221.622857,78.9942857 C221.622857,87.7714286 227.474286,90.6971429 249.417143,96.5485714 C275.748571,103.862857 290.377143,113.371429 290.377143,136.045714 L290.377143,136.777143 C290.377143,163.108571 270.628571,177.737143 242.834286,177.737143 C223.085714,177.005714 203.337143,169.691429 187.977143,155.794286 L187.977143,155.794286 Z M162.377143,43.8857143 L142.628571,119.954286 L120.685714,43.8857143 L98.7428571,43.8857143 L76.0685714,119.954286 L56.32,43.8857143 L26.3314286,43.8857143 L63.6342857,174.811429 L87.7714286,174.811429 L109.714286,98.7428571 L130.925714,174.811429 L155.794286,174.811429 L193.097143,43.8857143 L162.377143,43.8857143 Z"/></g></g></g></g></g></g></svg>